# xmcd CD database file
#
# Track frame offsets:
#	150
#	21845
#	64410
#	99010
#	133307
#	159330
#	190265
#
# Disc length: 3278 seconds
#
# Revision: 0
# Processed by: cddbd v1.5.2PL0 Copyright (c) Steve Scherf et al.
# Submitted via: CDex 1.70beta2
#
DISCID=580ccc07
DTITLE=Lars Erstarnd and quartet - Beautiful Friendship
DYEAR=1992
DGENRE=Jazz
TTITLE0=A Beautiful Friendship
TTITLE1=Jim Dawgs
TTITLE2=I Tought About You
TTITLE3=Dark Eyes
TTITLE4=These Foolish Things
TTITLE5=Cherokee
TTITLE6=A Porter's Love Song to a Chambermaid
EXTD=YEAR: 1992
EXTT0=
EXTT1=
EXTT2=
EXTT3=
EXTT4=
EXTT5=
EXTT6=
PLAYORDER=
